<svg viewBox="0 0 512 512" xmlns="http://www.w3.org/2000/svg"><path d="m456 512h-400c-30 0-56-26-56-56v-400c0-30 26-56 56-56h400c30 0 56 26 56 56v400c0 30-27 56-56 56zm-5-471h-390c-14 0-20 10-20 20v390c0 19 15 20 20 20h390c12 0 20-7 20-20v-390c0-17-11-20-20-20z" fill="#fff" /><path d="m163 79v163h10c15 0 30-2 37-5 18-9 22-19 25-33h8v97h-8c-3-15-14-27-25-32-12-5-20-5-37-5h-10v123c0 20 1 33 3 39 2 5 5 9 11 14 5 4 12 6 19 6h9v11h-133v-11h8c8 0 14-2 18-6 3-2 6-7 8-14 2-5 2-18 2-38v-264c0-20-1-33-2-39-3-13-15-19-26-19h-8c-1 0 0-11 0-11h220v116h-8c-2-27-6-47-14-60s-17-22-32-27c-8-4-25-5-48-5z" fill="#fff" /><path d="m271 155v129h8c12 0 24-2 30-4 14-7 18-15 20-26h6v78h-6c-2-12-11-22-20-26-10-4-16-4-30-4h-8v99c0 16 1 26 2 31 2 4 4 7 9 11 4 3 10 5 15 5h7v9h-106v-9h6c6 0 11-2 14-5 2-2 5-6 6-11 2-4 2-14 2-30v-211c0-16-1-26-2-31-2-10-12-15-21-15h-6c-1 0 0-9 0-9h176v93h-6c-2-22-5-38-11-48s-14-18-26-22c-6-3-20-4-38-4z" opacity="0.75" fill="#fff" /><path d="m361 217v102h6c10 0 19-1 23-3 11-6 14-12 16-21h5v62h-5c-2-10-9-17-16-20-8-3-13-3-23-3h-6v78c0 13 1 21 2 25 1 3 3 6 7 9 3 3 8 4 12 4h6v7h-84v-7h5c5 0 9-1 11-4 2-1 4-4 5-9 1-3 1-11 1-24v-168c0-13-1-21-1-25-2-8-10-12-17-12h-5c-1 0 0-7 0-7h140v74h-5c-1-17-4-30-9-38s-11-14-20-17c-5-3-16-3-30-3z" opacity="0.5" fill="#fff" /></svg>