<svg viewBox="0 0 512 512" xmlns="http://www.w3.org/2000/svg"><path d="m82 324v87c0 11 8 19 19 19h88c15 0 22-17 11-29l-27-28 83-83 83 83-27 28c-11 11-4 29 11 29h88c11 0 19-8 19-19v-87c0-15-17-23-29-12l-28 27-83-83 83-83 28 27c11 11 29 3 29-12v-87c0-11-8-19-19-19h-88c-15 0-22 17-11 29l27 28-83 83-83-83 27-28c11-11 4-29-11-29h-88c-11 0-19 8-19 19v87c0 15 17 23 29 12l28-27 83 83-83 83-28-27c-12-11-29-4-29 12zm374 188h-400c-30 0-56-26-56-56v-400c0-30 26-56 56-56h400c30 0 56 26 56 56v400c0 30-27 56-56 56zm-5-471h-390c-14 0-20 10-20 20v390c0 19 15 20 20 20h390c12 0 20-7 20-20v-390c0-17-11-20-20-20z" /></svg>