<svg xmlns="http://www.w3.org/2000/svg" viewBox="0 0 1000 1000"><path d="M91.7,193.8L91.7,193.8z M908.3,275.4H91.7c-45.1,0-81.7-36.6-81.7-81.7c0-45.1,36.6-81.7,81.7-81.7h816.7c45.1,0,81.7,36.6,81.7,81.7C990,238.9,953.4,275.4,908.3,275.4z M91.7,500L91.7,500z M908.3,581.7H91.7C46.6,581.7,10,545.1,10,500c0-45.1,36.6-81.7,81.7-81.7h816.7c45.1,0,81.7,36.6,81.7,81.7C990,545.1,953.4,581.7,908.3,581.7z M91.7,806.2L91.7,806.2z M908.3,887.9H91.7c-45.1,0-81.7-36.6-81.7-81.7c0-45.1,36.6-81.7,81.7-81.7h816.7c45.1,0,81.7,36.6,81.7,81.7C990,851.3,953.4,887.9,908.3,887.9z" fill="#fff" /></svg>