<svg viewBox="0 0 512 512" xmlns="http://www.w3.org/2000/svg"><path d="m23 512c-12 0-23-11-23-23v-177c0-10 12-23 23-23h177c15 0 23 10 23 24v175c0 13-11 24-24 24h-176zm180-26v-172c0-3-1-5-5-5h-173c-3 0-5 2-5 5v172c0 3 2 5 5 5h173c4 0 5-2 5-5zm108 26c-12 0-22-10-22-23 0-59 0-116-1-174 0-16 6-24 21-24 65-1 92-1 180-2 14 0 23 12 23 24v175c0 13-11 24-24 24-59 0-117 1-177 0zm181-26v-172c0-3-2-5-5-5h-173c-3 0-5 2-5 5v172c0 3 2 5 5 5h173c3 0 5-3 5-5zm-491-286v-177c0-12 14-23 23-23h177c13 0 23 12 23 24v175c0 12-11 23-24 23h-177c-9 0-22-12-22-22zm123-25c3 0 5-1 5-4v-44h42c4 0 6-2 6-6v-20c0-4-1-6-5-6h-43v-44c0-4-2-5-6-5h-21c-3 0-5 1-5 5v44h-42c-5 0-6 2-6 6v20c0 3 2 6 5 6h43v44c0 2 2 4 6 4h21zm166 25v-177c0-12 13-23 23-23h177c12 0 23 12 23 24v175c0 14-12 24-24 24h-176c-13 0-23-12-23-23zm203-3v-172c0-3-2-5-5-5h-173c-4 0-5 3-5 5v172c0 3 2 5 5 5h173c3 0 5-3 5-5z" fill="#fff" /></svg>