<svg viewBox="0 0 512 512" xmlns="http://www.w3.org/2000/svg"><path d="m 352,388 h -35 c -5,0 -7,-2 -7,-7 0,-34 1,-65 1,-99 v -93 c 0,-7 0,-25 -2,-26 -3,-1 -7,2 -16,5 -13,4 -21,6 -31,8 -7,1 -12,-1 -12,-5 v -32 c 0,-3 4,-5 12,-7 45,-9 56,-33 65,-45 2,-2 3,-5 4,-5 5,1 9,3 13,4 4,1 6,2 11,3 1,2 1,5 1,8 0,11 -0,39 -1,110 -0,37 0,65 0,97 0,25 0,76 0,76 0,5 -0,8 -3,8 z M 187,331 c 3,0 6,-2 6,-5 v -43 h 43 c 3,0 5,-3 5,-6 v -21 c 0,-3 -1,-6 -5,-6 h -44 c 0,0 0,-40 -4e-5,-43 -0,-4 -1,-5 -6,-5 h -21 c -3,0 -6,1 -6,5 v 43 h -41 c -5,0 -7,2 -7,6 v 21 c 0,3 2,6 7,6 h 41 v 43 c 0,4 2,5 6,5 h 22 z" fill="#fff" /></svg>