<svg viewBox="0 0 512 512" xmlns="http://www.w3.org/2000/svg"><path d="m0 488v-465c0-11 12-23 23-23h177c14 0 23 15 23 24v463c0 13-11 25-23 25h-177c-9 0-23-13-23-24zm122-169c3 0 6-2 6-5v-43h43c3 0 5-3 5-6v-21c0-3-1-6-5-6h-44s6e-3 -40-4e-5 -43c-8e-3 -4-1-5-6-5h-21c-3 0-6 1-6 5v43h-41c-5 0-7 2-7 6v21c0 3 2 6 7 6h41v43c0 4 2 5 6 5h22zm189 193c-14-0-23-11-23-24v-465c0-11 10-23 23-23h177c15 1e-14 23 12 23 24v463c0 13-11 25-22 25-85 1-104 0-178 0zm180-27v-460c0-2-2-5-5-5h-173c-3 0-5 2-5 5v460c0 3 2 5 5 5h173c3 0 5-2 5-5z" fill="#fff" /></svg>