<svg version="1.0" xmlns="http://www.w3.org/2000/svg" width="260pt" height="260pt" viewBox="0 0 260 260" preserveAspectRatio="xMidYMid meet"><path d="m 44.199703,174.2776 c -0.01053,11.51116 11.810462,17.0063 22.042316,16.94406 10.465129,-0.0637 24.05793,-4.97421 24.002645,-16.97811 -0.145729,-31.64217 -0.241631,-69.02819 0.02968,-104.361295 0.06186,0.04871 -20.577598,-0.04126 -20.577598,-0.04126 -0.105126,35.015305 0.534022,65.240225 -0.180539,97.848915 -0.06628,2.80352 -5.605292,2.59686 -5.639754,-0.0224 -0.322603,-34.31977 -0.03458,-62.7045 -0.02246,-97.865923 H 43.814422 c -0.01126,34.320003 0.411538,75.772893 0.385281,104.476013 z m 54.549051,13.87814 H 118.68864 V 69.801612 H 98.748754 Z M 154.08012,91.740451 c -4.49988,1.434395 -5.85597,4.860095 -8.39181,8.395619 0.0841,-3.096074 -0.25721,-5.497194 -0.18053,-8.45386 -4.62411,-0.139086 -12.56214,0 -18.8432,0 v 96.47353 h 18.94289 c 0.12507,-25.83623 -0.21168,-51.67672 -0.0997,-77.51248 0.0278,-3.62003 6.95135,-3.73981 7.00142,0.13888 0.17744,27.49859 0.10788,48.02327 0.0773,77.3736 h 19.04259 l -0.0206,-75.42444 c -7.5e-4,-4.51385 -0.67723,-10.70554 -2.77092,-15.380024 -3.07144,-6.585111 -10.04016,-6.717648 -14.75731,-5.610825 z m 30.05084,96.473519 c 4.73384,0.22741 19.57973,0.21544 25.28412,0.13889 3.11638,-31.98537 6.21758,-64.57147 9.17235,-96.67065 -5.64964,0 -12.32009,-0.04968 -16.9489,0 -1.64835,21.19589 -3.17614,48.51254 -4.78557,69.52061 -1.65965,-21.01029 -3.91044,-48.66236 -5.38377,-69.319902 -5.72146,0.0079 -10.60602,-0.200708 -16.94889,-0.200708 2.72418,33.43419 6.10578,62.68388 9.61066,96.53176 z"/></svg>
