<svg xmlns="http://www.w3.org/2000/svg" viewBox="0 0 1753 1192"><path d="m 1.6036036,492.63966 c 0.9528835,292.13911 2.4780574,431.19502 2.2612606,510.52244 -0.3080589,112.7208 121.4720558,189.103 224.0991058,188.4775 104.96677,-0.6398 235.8365,-62.1021 237.73873,-188.8198 2.20709,-147.02547 0.45663,-342.02392 0.50451,-513.03599 C 466.25291,326.66067 465.37947,1.3210565 466,1.8108107 466.62053,2.300565 259.6036,1.3963964 259.6036,1.3963964 c 0,0 0.39635,350.2489436 1.3964,488.6036236 0.87928,121.64625 -1.00005,401.64532 -3.20721,495.22523 -0.66484,28.18815 -56.22192,26.11045 -56.56757,-0.22523 -1.22527,-93.35468 1.35942,-286.20175 1.17118,-493.82883 C 202.20775,283.10034 202.52709,130.79792 201,0.99999998 c 0,0 -201.00040782059,-0.12503139 -201,0 z M 551,1191 H 751 V 0.99999998 H 551 Z m 554.982,-969.41439 c -45.1346,14.42224 -58.7363,48.86621 -84.1712,84.41441 0.844,-31.12975 -2.5799,-55.27193 -1.8108,-85 -46.38046,-1.39846 -126,0 -189,0 V 1191 h 190 c -1.0001,-59.3546 0,-382.60358 0,-382.60358 0,-233 -1.1535,-376.75167 -1.0001,-396.75108 0.2791,-36.3979 69.7231,-37.60221 70.2252,1.39639 0.3271,25.40497 1.3868,190.16319 1.1713,397.1655 L 1091,1191 h 191 l -0.2072,-758.36034 C 1281.7804,387.25483 1275,325.00002 1254,278.00002 c -30.8069,-66.2104 -100.7043,-67.54303 -148.018,-56.41441 z m 301.4144,969.99999 c 47.4812,2.2865 196.3876,2.1661 253.6036,1.3964 31.2577,-321.59913 62.3632,-649.23837 92,-971.98198 -56.6667,0 -123.5724,-0.49945 -170,0 -16.5332,213.11568 -31.8572,487.77286 -48,699 -16.6466,-211.24947 -39.2223,-489.27913 -54,-696.98198 -57.3872,0.0836 -106.3801,-2.01802 -170,-2.01802 27.3239,336.16641 61.2419,630.25972 96.3964,970.58558 z"/></svg>
